<svg width="24" height="24" viewBox="0 0 24 24" fill="none" xmlns="http://www.w3.org/2000/svg">
<path fill-rule="evenodd" clip-rule="evenodd" d="M8.37712 22.3937C11.8929 22.3937 14.9028 20.4397 16.1454 17.6698C16.1606 17.636 11.1566 18.9703 11.3161 18.4986C11.3874 18.288 14.4549 17.1674 16.6898 15.8603C17.9743 15.1091 18.5658 13.5187 18.5658 13.5187C18.5658 13.5187 16.4017 14.5695 15.3077 14.836C13.1031 15.3732 11.1624 15.3153 11.1624 15.2594C11.1624 15.1383 14.3848 14.526 18.8636 11.7968C20.9703 10.513 21.5425 8.3017 21.5425 8.3017C21.5425 8.3017 19.2264 9.68133 17.8262 10.1368C14.5058 11.217 11.4757 11.5425 11.4757 11.3963C11.4757 11.0834 14.1423 10.3501 16.9695 8.98017C18.4395 8.26791 19.7126 7.33734 21.1879 6.30248C23.6018 4.60931 24 1.59375 24 1.59375C24 1.59375 21.6191 3.12938 20.4572 3.63935C15.6629 5.74364 11.4295 6.84745 8.37712 7.08642C3.7695 7.44717 0 10.662 0 14.836C0 19.01 3.75056 22.3937 8.37712 22.3937Z" fill="#111D4C"/>
</svg>
